<svg width="42" height="42" viewBox="0 0 42 42" fill="none" xmlns="http://www.w3.org/2000/svg">
<circle cx="21" cy="21" r="21" fill="#2775c9"/>
<g transform="translate(6 6)">
<path transform="translate(10.41 5.83)" fill-rule="nonzero" d="M4.01101 2.15914L4.01101 1.05485C4.01101 0.466989 4.48914 0 5.09101 0C5.69289 0 6.17101 0.466989 6.17101 1.05485L6.17101 2.14815C8.12851 2.42834 9.46164 3.52165 9.82164 5.06546C9.89476 5.40609 9.69226 5.73573 9.34351 5.81814C9.29289 5.82913 9.24789 5.82913 9.19726 5.82913L8.60664 5.82913C8.13976 5.82913 7.70664 5.55992 7.50414 5.14787C7.13289 4.37322 6.24414 3.92821 5.06851 3.92821C3.59476 3.92821 2.61039 4.63144 2.61039 5.68628C2.61039 6.53236 3.26851 7.02132 4.86601 7.39492L6.36789 7.73554C9.00601 8.3234 10.1254 9.38923 10.1254 11.2847C10.1254 13.3834 8.62351 14.8008 6.16539 15.1414L6.16539 16.4051C6.16539 16.9929 5.68726 17.4599 5.08539 17.4599C4.48351 17.4599 4.00539 16.9929 4.00539 16.4051L4.00539 15.1524C1.82289 14.8942 0.343513 13.7679 0.0116375 12.0483C-0.0502375 11.7681 0.141013 11.4879 0.433513 11.4385C0.467263 11.4275 0.506638 11.4275 0.540388 11.4275L1.42914 11.4275C1.82289 11.4275 2.19976 11.6528 2.36289 12.0044C2.77351 12.8505 3.81414 13.3614 5.12476 13.3614C6.69414 13.3614 7.79101 12.5977 7.79101 11.5429C7.79101 10.6309 7.12164 10.1035 5.48476 9.71338L3.79164 9.3288C1.38976 8.79039 0.253513 7.66412 0.253513 5.84561C0.253513 3.90623 1.76664 2.49977 4.01101 2.15914L4.01101 2.15914Z" fill="#ffffff"/>
<path transform="translate(2.00 2.00)" fill-rule="nonzero" d="M0 12.5124C0 6.69975 3.88688 1.76614 9.27563 0.0300395C9.61312 -0.0743461 9.98438 0.101461 10.0913 0.4311C10.1138 0.491534 10.125 0.557462 10.125 0.628884L10.125 1.00248C10.125 1.56286 9.77625 2.0793 9.23625 2.29356C5.09625 3.93627 2.16563 7.88646 2.16563 12.5124C2.16563 17.1328 5.07937 21.094 9.21937 22.7202C9.75937 22.929 10.1194 23.4454 10.1194 24.0223L10.1194 24.3245C10.1194 24.6981 9.81 24.9948 9.43312 24.9948C9.36 24.9948 9.28687 24.9838 9.21937 24.9618C3.86437 23.2367 0 18.3141 0 12.5124L0 12.5124Z" fill="#ffffff"/>
<path transform="translate(18.88 2.04)" fill-rule="nonzero" d="M10.125 12.4714C10.125 18.262 6.28313 23.1737 0.945 24.9208C0.57375 25.0471 0.163125 24.8493 0.03375 24.4867C0.01125 24.4153 0 24.3329 0 24.2615L0 24.0142C0 23.4264 0.36 22.899 0.91125 22.6792C5.04 21.0365 7.95375 17.0863 7.95375 12.4714C7.95375 7.8674 5.05125 3.91722 0.9225 2.27451C0.36 2.04926 0 1.51085 0 0.928483L0 0.70323C0 0.31865 0.32625 0 0.72 0C0.804375 0 0.8775 0.0109876 0.950625 0.0329636C6.28312 1.78005 10.125 6.69169 10.125 12.4714L10.125 12.4714Z" fill="#ffffff"/>
</g>
</svg>
